<svg viewBox="0 0 27 15" xmlns="http://www.w3.org/2000/svg"><g clip-rule="evenodd" fill="#1b1b1b" fill-rule="evenodd"><path d="m14.8422 12.5703c.4793-1.2648.7897-3.05736.7897-5.0703s-.3104-3.80547-.7897-5.07029c-.2407-.63522-.5105-1.1013-.7744-1.39583-.2659-.296743-.4601-.352062-.5675-.352062s-.3016.055319-.5675.352062c-.2639.29453-.5337.76061-.7744 1.39583-.4793 1.26482-.7897 3.05735-.7897 5.07029s.3104 3.8055.7897 5.0703c.2407.6352.5105 1.1013.7744 1.3958.2659.2968.4601.3521.5675.3521s.3016-.0553.5675-.3521c.2639-.2945.5337-.7606.7744-1.3958zm-1.3419 2.4297c1.5697 0 2.8421-3.3579 2.8421-7.5 0-4.14214-1.2724-7.5-2.8421-7.5-1.5696 0-2.8421 3.35786-2.8421 7.5 0 4.1421 1.2725 7.5 2.8421 7.5z"/><path d="m13.5002 14.3182c3.0126 0 5.6842-2.9183 5.6842-6.8182 0-3.89989-2.6716-6.818182-5.6842-6.818182s-5.6842 2.918292-5.6842 6.818182c0 3.8999 2.6716 6.8182 5.6842 6.8182zm0 .6818c3.5317 0 6.3947-3.3579 6.3947-7.5 0-4.14214-2.863-7.5-6.3947-7.5-3.53171 0-6.39473 3.35786-6.39473 7.5 0 4.1421 2.86302 7.5 6.39473 7.5z"/><path d="m13.5001 14.3182c5.2705 0 9.2368-3.1966 9.2368-6.8182 0-3.62156-3.9663-6.818182-9.2368-6.818182-5.27054 0-9.23684 3.196622-9.23684 6.818182 0 3.6216 3.9663 6.8182 9.23684 6.8182zm0 .6818c5.4938 0 9.9474-3.3579 9.9474-7.5 0-4.14214-4.4536-7.5-9.9474-7.5-5.49378 0-9.94737 3.35786-9.94737 7.5 0 4.1421 4.45359 7.5 9.94737 7.5z"/><path d="m22.6899 12.2132c2.3352-1.2973 3.5996-2.9879 3.5996-4.7132s-1.2644-3.41595-3.5996-4.71324c-2.3167-1.28707-5.5643-2.104942-9.1899-2.104942-3.62564 0-6.87322.817872-9.18994 2.104942-2.33512 1.29729-3.599534 2.98794-3.599534 4.71324s1.264414 3.4159 3.599534 4.7132c2.31672 1.2871 5.5643 2.105 9.18994 2.105 3.6256 0 6.8732-.8179 9.1899-2.105zm-9.1899 2.7868c7.4558 0 13.5-3.3579 13.5-7.5 0-4.14214-6.0442-7.5-13.5-7.5-7.45584 0-13.5 3.35786-13.5 7.5 0 4.1421 6.04416 7.5 13.5 7.5z"/><path d="m26.2895 7.49822h-26.2895v-.68181h26.2895z"/></g></svg>